<svg version="1.1" xmlns="http://www.w3.org/2000/svg" style="display: block;" viewBox="0 0 1920 2048" width="1536" height="1638">
<path transform="translate(0,0)" fill="rgb(254,202,1)" d="M 652.405 319.293 C 696.863 318.481 741.404 320.127 785.906 319.213 C 798.985 349.594 809.784 381.283 822.074 412.034 L 932.591 691.524 C 955.779 620.194 984.237 549.839 1010.79 479.662 C 1030.89 426.548 1049.11 372.386 1070.61 319.855 C 1083.43 319.139 1191.96 317.999 1198.83 320.634 C 1199.82 323.447 1199.94 323.919 1199.34 326.826 C 1194.69 332.64 1185.73 333.152 1178.95 335.17 C 1168.91 338.161 1162.83 342.39 1157.96 351.992 C 1152.79 362.187 1151.16 374.146 1150.36 385.412 C 1148.71 408.71 1149.37 432.226 1149.4 455.568 L 1149.37 553.846 L 1149.35 670.185 C 1149.36 692.564 1148.61 715.222 1149.9 737.562 C 1150.38 745.846 1151.35 754.133 1154.05 762.022 C 1158.73 775.702 1169.12 785.681 1183.61 788.173 C 1188.52 789.018 1193.36 788.848 1197.9 791.094 C 1199.75 793.584 1199.69 794.116 1199.91 797.252 L 1198.77 798.51 C 1178.36 801.075 1145.91 799.064 1124.69 799.02 L 1066.47 798.966 C 1057.17 798.973 1047.57 799.606 1038.31 799.059 C 1035.74 798.908 1033.74 798.813 1031.49 797.43 C 1031.26 794.597 1031.38 794.402 1032.84 791.943 C 1036.3 789.644 1039.95 788.918 1043.94 788.023 C 1051.17 786.399 1056.24 782.63 1061.28 777.328 C 1068.22 770.025 1070.43 759.449 1071.54 749.741 C 1073.01 736.936 1072.26 723.579 1072.22 710.705 L 1072.16 650.978 C 1072.41 577.234 1072.1 503.489 1071.23 429.75 C 1070.99 412.24 1070.29 394.589 1071.33 377.102 C 1066.2 388.167 1062.22 400.012 1057.88 411.42 L 1034.93 471.819 L 953.573 682.781 C 944.188 707.57 934.667 732.308 925.011 756.993 C 919.24 771.932 913.878 787.192 907.037 801.676 C 901.437 802.127 895.721 802.076 890.1 802.229 L 778.572 523.199 L 739.226 425.55 C 732.68 409.603 726.549 393.324 719.185 377.739 C 722.363 407.499 720.464 442.205 720.434 472.397 L 720.455 638.105 C 720.425 669.817 716.522 737.967 728.164 764.381 C 739.409 789.897 753.626 784.05 772.812 791.318 C 774.407 793.076 774.44 793.961 774.977 796.313 C 774.304 797.719 774.467 798.141 772.925 798.781 C 769.166 800.341 670.565 799.379 661.268 798.954 C 657.835 798.797 654.628 798.608 651.367 797.428 L 650.708 795.05 C 654.912 789.039 665.795 788.531 672.543 786.301 C 682.025 783.169 689.935 773.206 694.099 764.358 C 698.9 754.156 701.308 742.1 702.312 730.924 C 704.243 709.437 703.707 687.62 703.673 666.069 L 703.629 580.255 L 703.594 470.956 C 703.552 446.457 703.978 421.688 702.399 397.232 C 701.626 385.263 700.303 371.445 695.929 360.199 C 690.575 346.433 680.778 335.874 665.903 333.091 C 661.676 332.3 655.98 331.907 652.179 329.78 C 650.046 328.587 649.811 327.415 649.325 325.169 C 650.175 322.832 650.772 321.224 652.405 319.293 z"/>
<path transform="translate(0,0)" fill="rgb(254,202,1)" d="M 1440.11 306.581 C 1484.07 301.456 1529.45 311.496 1571.67 322.836 C 1584.32 326.235 1597.52 329.445 1609.61 334.521 C 1611.33 344.927 1611.2 355.91 1611.63 366.441 C 1612.42 383.364 1612.95 400.297 1613.22 417.236 C 1613.35 425.257 1614.64 433.403 1614.47 441.35 C 1614.43 443.409 1614.22 446.596 1613.01 448.36 C 1611.42 450.661 1610.42 450.549 1607.83 451.073 C 1604.15 449.55 1601.05 436.514 1599.72 432.476 C 1591.82 408.423 1581.8 384.59 1564.62 365.584 C 1540.86 339.289 1503.44 321.412 1468.07 319.763 C 1432.2 318.09 1405.72 327.857 1379.31 352.341 C 1361.91 368.545 1347.86 388.008 1337.96 409.624 C 1319.76 450.235 1314.37 505.907 1313.01 550.247 C 1310.96 616.71 1326.7 703.347 1374.29 752.874 C 1397.47 776.99 1436.08 796.317 1469.94 796.606 C 1495.7 796.825 1522.91 782.542 1540.92 764.869 C 1541.22 733.733 1541.33 702.596 1541.23 671.459 C 1541.21 653.345 1542.08 634.637 1540.58 616.616 C 1540.52 615.945 1540.46 615.273 1540.36 614.606 C 1534.54 575.003 1506.86 592.289 1492.05 581.525 C 1491.63 579.869 1490.94 578.12 1491.4 576.411 C 1491.71 575.277 1492.85 575.007 1493.85 574.652 C 1497.45 573.377 1633.04 572.801 1646.69 573.471 C 1650.04 573.635 1653.23 574.009 1656.31 575.41 L 1656.95 577.791 C 1653.35 584.27 1635.81 585.838 1628.65 592.205 C 1625.09 595.367 1622.6 599.35 1621.56 604.005 C 1618.44 618.009 1620.15 635.007 1620.17 649.339 C 1620.24 685.74 1621.92 722.79 1620.42 759.124 C 1589.69 782.878 1521.15 806.256 1482.75 809.248 C 1421.52 814.019 1359.19 801.953 1311.5 761.13 C 1262.26 718.969 1234.73 654.998 1230.09 590.942 C 1224.84 518.501 1239.52 446.132 1288.42 390.149 C 1325.66 347.508 1382.58 310.414 1440.11 306.581 z"/>
<path transform="translate(0,0)" fill="rgb(254,202,1)" d="M 284.927 319.391 C 316.73 318.537 348.959 319.601 380.797 319.661 C 401.61 319.7 424.828 317.443 445.266 320.949 C 446.552 322.528 446.547 322.663 446.657 324.706 C 441.833 332.375 425.455 332.267 417.524 337.209 C 410.759 341.425 407.093 352.573 405.456 360.121 C 400.927 381.016 403.094 404.754 403.087 426.151 L 403.073 525.719 L 403.1 663.13 C 403.108 687.808 401.955 713.011 403.672 737.605 C 404.495 749.397 405.688 763.648 412.523 773.737 C 416.88 780.168 423.26 783.998 430.909 785.224 C 441.694 786.952 454.223 785.549 465.201 785.603 C 479.801 785.676 493.869 785.525 508.218 782.333 C 551.924 772.61 580.139 736.287 599.109 698.082 C 604.843 686.534 610.982 666.168 621.368 658.309 C 624.142 657.854 624.009 657.81 626.326 659.395 C 627.467 662.288 626.852 665.215 626.55 668.227 C 625.669 683.294 622.817 698.581 620.55 713.505 C 616.055 742.168 611.404 770.806 606.599 799.418 C 530.778 797.773 454.607 798.933 378.759 799.062 L 312.688 799.128 C 304.079 799.117 293.942 800.105 285.476 798.846 C 283.351 798.53 283.277 798.563 281.884 796.806 C 282.141 786.187 307.064 789.396 317.626 771.76 C 322.584 763.481 324.309 753.585 324.984 744.092 C 326.411 724.013 325.702 703.555 325.7 683.428 L 325.643 580.12 L 325.593 458.476 C 325.632 431.398 328.607 382.033 321.607 357.397 C 313.166 327.689 298.143 336.759 281.335 327.384 C 279.972 325.21 279.611 325.155 280.028 322.667 C 281.498 320.927 282.911 320.347 284.927 319.391 z"/>
<path transform="translate(0,0)" fill="rgb(254,202,1)" d="M 926.072 940.43 L 983.731 940.272 C 1022.07 940.177 1053.47 939.569 1083.43 967.657 C 1106.53 989.316 1119.31 1021.62 1120.24 1052.97 C 1121.25 1086.63 1111.84 1117.97 1088.49 1142.77 C 1038.7 1188.45 986.827 1167.79 926.769 1172.94 L 925.073 1173.09 C 924.611 1149.28 923.587 946.183 926.072 940.43 z M 939.046 1161.09 C 956.65 1160.32 974.306 1160.71 991.924 1160.74 C 1022.58 1160.8 1046.21 1159.67 1070.56 1138.71 C 1091.99 1120.2 1102.91 1094.55 1104.82 1066.5 C 1106.8 1037.31 1099.26 1005.44 1079.48 983.175 C 1063.11 964.753 1041.01 953.6 1016.33 952.431 C 994.938 951.416 972.038 951.582 950.619 952.466 C 947.243 952.58 943.057 952.192 940.089 953.945 C 938.278 966.02 940.279 987.82 940.271 1000.95 L 940.277 1096.04 C 940.298 1117.67 941.083 1139.55 939.046 1161.09 z"/>
<path transform="translate(0,0)" fill="rgb(254,202,1)" d="M 1476.95 938.107 L 1496.82 937.877 C 1502.19 947.336 1505.71 958.114 1509.74 968.208 L 1529.48 1017.52 C 1550.36 1069.67 1572.01 1121.62 1592.15 1174.04 L 1576.54 1173.25 C 1570.74 1162.68 1566.83 1150.11 1562.29 1138.88 C 1556.61 1124.8 1549.89 1110.59 1545.48 1096.08 L 1497.5 1095.92 C 1474.79 1095.89 1452.01 1095.49 1429.32 1096.27 C 1421.35 1121.85 1410.89 1148.21 1399.93 1172.66 L 1383.11 1174.35 C 1389.03 1155.51 1397.39 1136.98 1404.64 1118.6 L 1444.61 1017.67 L 1465.56 965.047 C 1469.07 956.248 1472.14 946.228 1476.95 938.107 z M 1434.09 1084.27 C 1452.19 1084.37 1470.28 1084.34 1488.37 1084.17 L 1541.1 1083.99 L 1504 991.741 C 1498.95 979.232 1493.61 961.646 1487 950.466 C 1470.95 995.498 1452.22 1040.02 1434.09 1084.27 z"/>
<path transform="translate(0,0)" fill="rgb(254,202,1)" d="M 511.465 940.942 C 516.398 940.487 525.783 938.591 529.836 941.743 C 531.038 953.873 530.603 966.298 530.611 978.484 L 530.414 1041.01 C 530.262 1084.78 531.714 1128.9 530.232 1172.62 L 515.421 1172.87 C 513.868 1151.77 515.203 1129.79 515.223 1108.6 C 515.381 1064.57 515.315 1020.55 515.025 976.526 L 515.665 957.987 C 512.662 966.46 509.558 974.926 505.901 983.141 C 497.293 1002.48 431.888 1141.1 425.987 1147.09 C 422.659 1148.15 420.491 1148.09 417.046 1147.64 C 407.783 1139.87 339.262 984.472 325.729 958.24 C 327.431 1004.43 326.557 1050.7 326.442 1096.91 C 326.38 1121.93 328.182 1147.85 326.234 1172.72 L 311.934 1172.74 C 309.918 1143.16 311.842 1112.51 311.858 1082.78 C 311.883 1035.29 310.827 987.699 312.039 940.226 C 318.015 940.268 323.991 940.341 329.966 940.445 C 339.062 954.527 348.757 978.197 356.602 994.153 L 421.089 1126.65 C 430.075 1103.5 442.373 1081.71 453.266 1059.42 C 472.396 1019.8 491.796 980.303 511.465 940.942 z"/>
<path transform="translate(0,0)" fill="rgb(254,202,1)" d="M 657.966 940.114 C 689.518 941.621 721.734 940.695 753.353 940.466 C 765.716 940.377 778.888 938.999 791.125 940.215 C 794.496 940.55 797.096 941.034 799.314 943.764 C 799.643 946.399 799.555 948.041 798.966 950.63 C 796.496 952.53 794.711 952.596 791.563 952.776 C 780.651 953.398 769.082 952.452 758.086 952.427 C 729.328 952.205 700.569 952.342 671.814 952.837 C 672.752 984.516 672.028 1016.49 671.935 1048.2 C 696.343 1047.81 720.783 1048.12 745.195 1048.01 C 755.491 1047.96 780.852 1046.08 789.782 1048.64 C 790.933 1048.97 790.903 1048.89 791.332 1050.01 C 792.475 1053.01 791.994 1056.56 790.553 1059.34 C 782.073 1062.3 691.996 1058.6 672.96 1060.28 L 672.001 1060.38 L 671.912 1160.72 L 768.432 1160.72 C 776.25 1160.72 792.154 1158.75 798.897 1160.91 C 801.454 1161.73 802.217 1163.35 803.46 1165.54 C 803.501 1168.32 803.438 1168.86 802.11 1171.29 C 792.522 1174.75 678.291 1172.06 657.875 1172.91 C 656.791 1153.73 657.634 1134.24 657.643 1115.02 L 657.62 1010.45 C 657.666 993.275 655.484 954.47 657.966 940.114 z"/>
<path transform="translate(0,0)" fill="rgb(254,202,1)" d="M 1249.32 940.108 L 1264.07 939.625 C 1265.68 978.46 1264.24 1017.95 1264.25 1056.84 C 1264.25 1095.45 1265.7 1134.61 1263.92 1173.16 C 1259.3 1173.1 1254.66 1173.24 1250.03 1173.3 C 1248.78 1149.37 1249.85 1124.86 1249.85 1100.86 C 1250.12 1047.27 1249.94 993.688 1249.32 940.108 z"/>
</svg>